<svg version="1.1" id="Layer_1" xmlns="http://www.w3.org/2000/svg" x="0px" y="0px" viewBox="0 0 1920 1080" style="enable-background:new 0 0 1920 1080" xml:space="preserve"><polygon points="1612.8,972.5 1612.8,108.2 305.9,108.2 305.9,972.5" style="fill-rule:evenodd;clip-rule:evenodd;fill:#E30613"/><path d="M1106.3,486.8h-17.1h-96l-28.3-84.8l-5.2-15.6l-5.2,15.6l-28.3,84.8h-91.5h-16.4l13.4,9.7l73.6,55l-29,87.8 l-5.2,16.4l14.1-9.7l75.1-53.6l76.6,57.3l14.1,10.4l-5.2-16.4l-29.8-90.7l77.4-55L1106.3,486.8L1106.3,486.8z M959.7,421.4 l21.6,65.5h-43.1L959.7,421.4L959.7,421.4z M985,498l16.4,49.8L959,578.3l-41.7-30.5l16.4-49.8H985L985,498z M851.1,498h71.4 l-14.1,42.4L851.1,498L851.1,498z M891.3,626.7l23.1-68.4l35.7,26.8L891.3,626.7L891.3,626.7z M1028.2,629.7L967.9,585l36.4-26 L1028.2,629.7L1028.2,629.7z M996.9,498h75.1l-61,43.1L996.9,498L996.9,498z" style="fill-rule:evenodd;clip-rule:evenodd;fill:#009640"/></svg>